<svg xmlns="http://www.w3.org/2000/svg" width="14" height="14" viewBox="0 0 14 14" fill="none">
  <path d="M 1 0 L 0 0 L 0 13 C 0 13.265 0.105 13.52 0.293 13.707 C 0.48 13.895 0.735 14 1 14 L 14 14 L 14 13 L 1 13 L 1 0 Z" fill="currentColor" fill-rule="nonzero"/>
  <path d="M 14 3.5 L 10.5 3.5 L 10.5 4.5 L 12.295 4.5 L 8.5 8.295 L 6.355 6.145 C 6.309 6.098 6.253 6.061 6.192 6.036 C 6.131 6.01 6.066 5.997 6 5.997 C 5.934 5.997 5.869 6.01 5.808 6.036 C 5.747 6.061 5.691 6.098 5.645 6.145 L 2 9.795 L 2.705 10.5 L 6 7.205 L 8.145 9.355 C 8.191 9.402 8.247 9.439 8.308 9.464 C 8.369 9.49 8.434 9.503 8.5 9.503 C 8.566 9.503 8.631 9.49 8.692 9.464 C 8.753 9.439 8.809 9.402 8.855 9.355 L 13 5.205 L 13 7 L 14 7 L 14 3.5 Z" fill="currentColor" fill-rule="nonzero"/>
</svg>
