<svg xmlns="http://www.w3.org/2000/svg" width="10" height="10" viewBox="0 0 10 10" fill="none">
  <path d="M 3 1 L 3 9 L 1 9 L 1 1 L 3 1 Z M 3 0 L 1 0 C 0.735 0 0.48 0.105 0.293 0.293 C 0.105 0.48 0 0.735 0 1 L 0 9 C 0 9.265 0.105 9.52 0.293 9.707 C 0.48 9.895 0.735 10 1 10 L 3 10 C 3.265 10 3.52 9.895 3.707 9.707 C 3.895 9.52 4 9.265 4 9 L 4 1 C 4 0.735 3.895 0.48 3.707 0.293 C 3.52 0.105 3.265 0 3 0 Z" fill="currentColor" fill-rule="nonzero"/>
  <path d="M 9 1 L 9 9 L 7 9 L 7 1 L 9 1 Z M 9 0 L 7 0 C 6.735 0 6.48 0.105 6.293 0.293 C 6.105 0.48 6 0.735 6 1 L 6 9 C 6 9.265 6.105 9.52 6.293 9.707 C 6.48 9.895 6.735 10 7 10 L 9 10 C 9.265 10 9.52 9.895 9.707 9.707 C 9.895 9.52 10 9.265 10 9 L 10 1 C 10 0.735 9.895 0.48 9.707 0.293 C 9.52 0.105 9.265 0 9 0 Z" fill="currentColor" fill-rule="nonzero"/>
</svg>
