<svg xmlns="http://www.w3.org/2000/svg" width="11" height="12" viewBox="0 0 11 12" fill="none">
  <path d="M 0.5 12 C 0.367 12 0.24 11.947 0.146 11.854 C 0.053 11.76 0 11.633 0 11.5 L 0 0.5 C 0 0.413 0.023 0.328 0.066 0.252 C 0.109 0.177 0.171 0.114 0.245 0.07 C 0.32 0.025 0.405 0.001 0.492 0 C 0.579 -0.001 0.665 0.02 0.741 0.062 L 10.741 5.562 C 10.819 5.605 10.885 5.668 10.93 5.746 C 10.976 5.823 11 5.91 11 6 C 11 6.09 10.976 6.177 10.93 6.255 C 10.885 6.332 10.819 6.395 10.741 6.438 L 0.741 11.938 C 0.667 11.979 0.584 12 0.5 12 Z M 1 1.345 L 1 10.654 L 9.462 6 L 1 1.345 Z" fill="currentColor" fill-rule="nonzero"/>
</svg>
